<svg xmlns="http://www.w3.org/2000/svg" viewBox="0 0 48 48">
  <path fill="#fff" d="M12 8h24v32H12z"/>
  <path fill="#4285F4" d="M36 8H12a4 4 0 00-4 4v24a4 4 0 004 4h24a4 4 0 004-4V12a4 4 0 00-4-4zm0 28H12V18h24v18z"/>
  <path fill="#EA4335" d="M8 16h32v2H8z"/>
  <rect fill="#4285F4" x="16" y="22" width="6" height="5" rx="1"/>
  <rect fill="#34A853" x="26" y="22" width="6" height="5" rx="1"/>
  <rect fill="#FBBC05" x="16" y="30" width="6" height="5" rx="1"/>
  <rect fill="#EA4335" x="26" y="30" width="6" height="5" rx="1"/>
  <circle fill="#4285F4" cx="14" cy="11" r="2"/>
  <circle fill="#4285F4" cx="34" cy="11" r="2"/>
</svg>
