<svg xmlns="http://www.w3.org/2000/svg" viewBox="0 0 24 24" fill="currentColor">
  <path d="M12.003 2.001c-5.522 0-9.997 4.473-9.997 9.997 0 4.991 3.94 9.116 8.924 9.941v3.518c0 .537.212 1.066.584 1.452l3.268 3.268c.386.386.915.584 1.452.584.537 0 1.066-.212 1.452-.584l3.268-3.268c.386-.386.584-.915.584-1.452 0-.825-.675-1.492-1.512-1.492s-1.512.667-1.512 1.492c0 .537.212 1.066.584 1.452l3.268 3.268c.386.386.915.584 1.452.584.537 0 1.066-.212 1.452-.584l3.268-3.268c.386-.386.584-.915.584-1.452zm-6.971-2.001c-3.308 0-5.997 2.689-5.997 5.997s2.689 5.997 5.997 5.997c1.351 0 2.6-.45 3.6-1.2l-2.4-2.4c-.6.45-1.35.7-2.25.7s-1.65-.25-2.25-.7l-2.4 2.4c-.75 1-.75 2.25 0 3.25 1.2 1.2 2.7 1.2 4.2 0 0-3.308-2.689-5.997-5.997z"/>
</svg>
