<?xml version="1.0" encoding="utf-8"?>
<!-- Uploaded to: SVG Repo, www.svgrepo.com, Generator: SVG Repo Mixer Tools -->
<svg width="800px" height="800px" viewBox="0 0 1024 1024" class="icon"  version="1.1" xmlns="http://www.w3.org/2000/svg"><path d="M261.84 693.464V286.064c0-131.496 106.592-238.128 238.12-238.128 131.552 0 238.16 106.632 238.16 238.128l0.76 407.392S619.496 786.472 500.32 784.696c-125.416-1.84-238.48-91.232-238.48-91.232z" fill="#F0AF2D" /><path d="M261.84 694.048c-119.032 0-215.368-78.816-215.368-206.896 0-134.936 96.336-206.96 215.368-206.96v413.856z" fill="#0092D2" /><path d="M738.872 693.464l-0.76-407.392c0-3.616-0.384-7.112-0.536-10.696L261.84 648.512v44.944s113.064 89.4 238.472 91.24c119.184 1.784 238.56-91.232 238.56-91.232z" fill="#EEA03A" /><path d="M955.944 485.616c0-143.696-97.128-208.576-217.072-208.576v397.448l-92.456 218.248a30.128 30.128 0 0 0 27.72 41.84c11.696 0 22.864-6.88 27.728-18.376l97.04-229.04c90.664-21.392 157.04-92.304 157.04-201.544z" fill="#1A8DCC" /><path d="M549.224 1001.096a60.272 60.272 0 0 1-56.44-39.232 60.24 60.24 0 0 1 35.456-77.432l107.976-40.168c31.168-11.52 65.832 4.296 77.44 35.464a60.264 60.264 0 0 1-35.456 77.432l-107.976 40.16a60.832 60.832 0 0 1-21 3.776z" fill="#E5226B" /></svg>